<?xml version="1.0" encoding="UTF-8"?>
<svg id="Layer_1" data-name="Layer 1" xmlns="http://www.w3.org/2000/svg" viewBox="0 0 4041.19 657.91">
  <defs>
    <style>
      .cls-1 {
        letter-spacing: -.04em;
      }

      .cls-2 {
        letter-spacing: -.05em;
      }

      .cls-3 {
        letter-spacing: -.08em;
      }

      .cls-4 {
        letter-spacing: -.08em;
      }

      .cls-5, .cls-6 {
        stroke-width: 0px;
      }

      .cls-7, .cls-8 {
        isolation: isolate;
      }

      .cls-6 {
        fill: #014063;
      }

      .cls-9 {
        letter-spacing: -.05em;
      }

      .cls-8 {
        font-family: PTSans-Bold, 'PT Sans';
        font-size: 400px;
        font-weight: 700;
      }
    </style>
  </defs>
  <g id="Full_color" data-name="Full color">
    <g>
      <path class="cls-6" d="M2049.28,358.41c5.49-9.51,13.2-16.97,22.08-22.08,9.51-5.49,19.91-8.09,30.17-8.09,11,0,21.28,2.94,30.17,8.09,9.51,5.49,16.97,13.2,22.08,22.08,3.46,5.97,5.74,12.29,7,18.68,11.09,54.05,50.03,76.42,102.42,58.83,6.34-2.14,12.86-3.2,19.34-3.17,11,0,21.28,2.94,30.17,8.09,9.51,5.49,16.97,13.2,22.08,22.08,5.49,9.51,8.09,19.91,8.09,30.17,0,11-2.94,21.28-8.09,30.17-5.49,9.51-13.2,16.97-22.08,22.08-9.51,5.49-19.91,8.09-30.17,8.09-6.74,0-13.2-1.11-19.26-3.14h0c-52.54-17.68-91.54,4.77-102.57,59v-.06c-1.29,6.63-3.69,12.86-6.94,18.51-5.49,9.51-13.2,16.97-22.08,22.08-9.51,5.49-19.91,8.09-30.17,8.09-11,0-21.28-2.94-30.17-8.09-9.51-5.49-16.97-13.2-22.08-22.08-5.49-9.51-8.09-19.91-8.09-30.17,0-11,2.94-21.28,8.09-30.17,5.49-9.51,13.2-16.97,22.08-22.08,9.51-5.49,19.91-8.09,30.17-8.09,6.94,0,13.6,1.17,19.83,3.34,34.94,11.6,63.85,5.37,82.45-16.23,15.63-18.11,15.6-44.48-.03-62.6-18.66-21.63-47.68-27.83-82.77-16.08h0c-6.37,2.17-12.97,3.26-19.48,3.23-11,0-21.28-2.94-30.17-8.09-9.51-5.49-16.97-13.2-22.08-22.08-5.49-9.51-8.09-19.91-8.09-30.17,0-10.97,2.94-21.26,8.09-30.14h0ZM3980.85,120.68c10.26,0,20.66-2.6,30.17-8.09,8.89-5.11,16.6-12.57,22.08-22.08,5.14-8.89,8.09-19.17,8.09-30.17,0-10.26-2.6-20.66-8.09-30.17-5.11-8.89-12.57-16.6-22.08-22.08-8.89-5.14-19.17-8.09-30.17-8.09-10.26,0-20.66,2.6-30.17,8.09-8.89,5.11-16.6,12.57-22.08,22.08-5.14,8.89-8.09,19.17-8.09,30.17,0,10.26,2.6,20.66,8.09,30.17,5.11,8.89,12.57,16.6,22.08,22.08,8.89,5.11,19.17,8.09,30.17,8.09h0Z"/>
      <path class="cls-5" d="M3040.08,330.87c0-111.75-79.94-193.92-195.41-193.92s-196.89,82.17-196.89,193.92,82.17,193.92,197.63,193.92c85.11,0,151.74-43.67,179.87-112.5h-77.6c-21.45,31.78-54.71,46.58-102.01,46.58-63.58,0-112.36-36.23-122.72-102.01h317.15v-26h-.03,0ZM2724.72,294.02c14.06-58.48,61.45-91.08,120.68-91.08s107.37,31.83,121.42,91.08h-242.1ZM3275.61,136.96c-115.51,0-196.96,82.2-196.96,193.99s81.45,193.99,196.96,193.99,196.96-82.2,196.96-193.99c-.03-111.82-81.45-193.99-196.96-193.99h0ZM3276.32,459.03c-75.51,0-125.88-53.31-125.88-128.11s50.34-128.11,125.88-128.11,125.88,53.31,125.88,128.11-51.08,128.11-125.88,128.11ZM3875.49,588.57h8.14c45.13,0,62.14-20,62.14-72.57V149.45h70.28v362.24c0,90.91-35.51,137.45-125.78,137.45h-14.79v-60.57h0ZM3840.63,401.44v-226.23c0-39.28-23.66-72.62-60.66-84.45-36.26-11.87-75.45.74-98.4,31.85l-160.55,211.15c-19.24,25.93-22.92,57.06-9.62,83.74,14.04,28.16,45.13,45.94,80.64,45.94h178.3v87.42h70.28v-86.57h53.43v-62.85h-53.43,0ZM3770.35,400.58h-176.22c-9.63,0-17.77-8.14-17.77-17.77,0-3.71.74-7.4,2.97-10.37l157.71-209.53c4.43-5.91,9.63-7.4,14.06-7.4,2.97,0,5.17,0,6.66.74,3.71.74,12.6,5.17,12.6,17.03v227.3h0ZM2609.27,323.67v191.76h-70.57v-191.76c0-79.97-43.66-120.68-110.28-120.68s-110.28,40.71-110.28,120.68v86.22c-10.91-4.68-22.89-7.31-35.51-7.31-11.71,0-23.49,2.28-34.77,6.97v-85.16c0-122.91,72.58-186.59,180.7-186.59,108.13.03,181.45,62.23,180.7,185.88h0Z"/>
    </g>
  </g>
  <g class="cls-7">
    <text class="cls-8" transform="translate(0 459.03)"><tspan class="cls-3" x="0" y="0">P</tspan><tspan class="cls-2" x="198.4" y="0">ow</tspan><tspan class="cls-1" x="662.4" y="0">ered </tspan><tspan class="cls-9" x="1445.99" y="0">b</tspan><tspan class="cls-4" x="1639.59" y="0">y</tspan></text>
  </g>
</svg>