<?xml version="1.0" encoding="utf-8"?>
<!-- Generator: Adobe Illustrator 28.0.0, SVG Export Plug-In . SVG Version: 6.00 Build 0)  -->
<svg version="1.1" xmlns="http://www.w3.org/2000/svg" xmlns:xlink="http://www.w3.org/1999/xlink" x="0px" y="0px"
	 viewBox="0 0 2100 2000" style="enable-background:new 0 0 2100 2000;" xml:space="preserve">
<style type="text/css">
	.st0{fill:#014063;}
	.st1{display:none;}
	.st2{display:inline;}
	.st3{fill:#FFFFFF;}
</style>
<g id="Full_color">
	<g>
		<path class="st0" d="M84.4,862c19.2-33.3,46.2-59.4,77.3-77.3c33.3-19.2,69.7-28.3,105.6-28.3c38.5,0,74.5,10.3,105.6,28.3
			c33.3,19.2,59.4,46.2,77.3,77.3c12.1,20.9,20.1,43,24.5,65.4c38.8,189.2,175.1,267.5,358.5,205.9c22.2-7.5,45-11.2,67.7-11.1
			c38.5,0,74.5,10.3,105.6,28.3c33.3,19.2,59.4,46.2,77.3,77.3c19.2,33.3,28.3,69.7,28.3,105.6c0,38.5-10.3,74.5-28.3,105.6
			c-19.2,33.3-46.2,59.4-77.3,77.3c-33.3,19.2-69.7,28.3-105.6,28.3c-23.6,0-46.2-3.9-67.4-11l0,0c-183.9-61.9-320.4,16.7-359,206.5
			c0,0,0-0.1,0-0.2c-4.5,23.2-12.9,45-24.3,64.8c-19.2,33.3-46.2,59.4-77.3,77.3c-33.3,19.2-69.7,28.3-105.6,28.3
			c-38.5,0-74.5-10.3-105.6-28.3c-33.3-19.2-59.4-46.2-77.3-77.3c-19.2-33.3-28.3-69.7-28.3-105.6c0-38.5,10.3-74.5,28.3-105.6
			c19.2-33.3,46.2-59.4,77.3-77.3c33.3-19.2,69.7-28.3,105.6-28.3c24.3,0,47.6,4.1,69.4,11.7c122.3,40.6,223.5,18.8,288.6-56.8
			c54.7-63.4,54.6-155.7-0.1-219.1c-65.3-75.7-166.9-97.4-289.7-56.3c0,0,0,0,0,0c-22.3,7.6-45.4,11.4-68.2,11.3
			c-38.5,0-74.5-10.3-105.6-28.3c-33.3-19.2-59.4-46.2-77.3-77.3c-19.2-33.3-28.3-69.7-28.3-105.6C56.1,929.2,66.4,893.1,84.4,862z"
			/>
		<path d="M2043.9,740v671.2h-246.2V740c0-279.9-152.9-422.4-386.2-422.4S1025.4,460.1,1025.4,740v302.3
			c-38.2-16.4-80.2-25.6-124.4-25.6c-41,0-82.3,8-121.8,24.4V742.6c0-430.2,254-653.1,632.4-653.1
			C1789.9,89.5,2046.5,307.2,2043.9,740z"/>
	</g>
</g>
<g id="White" class="st1">
	<g class="st2">
		<path class="st3" d="M84.4,862c19.2-33.3,46.2-59.4,77.3-77.3c33.3-19.2,69.7-28.3,105.6-28.3c38.5,0,74.5,10.3,105.6,28.3
			c33.3,19.2,59.4,46.2,77.3,77.3c12.1,20.9,20.1,43,24.5,65.4c38.8,189.2,175.1,267.5,358.5,205.9c22.2-7.5,45-11.2,67.7-11.1
			c38.5,0,74.5,10.3,105.6,28.3c33.3,19.2,59.4,46.2,77.3,77.3c19.2,33.3,28.3,69.7,28.3,105.6c0,38.5-10.3,74.5-28.3,105.6
			c-19.2,33.3-46.2,59.4-77.3,77.3c-33.3,19.2-69.7,28.3-105.6,28.3c-23.6,0-46.2-3.9-67.4-11l0,0c-183.9-61.9-320.4,16.7-359,206.5
			c0,0,0-0.1,0-0.2c-4.5,23.2-12.9,45-24.3,64.8c-19.2,33.3-46.2,59.4-77.3,77.3c-33.3,19.2-69.7,28.3-105.6,28.3
			c-38.5,0-74.5-10.3-105.6-28.3c-33.3-19.2-59.4-46.2-77.3-77.3c-19.2-33.3-28.3-69.7-28.3-105.6c0-38.5,10.3-74.5,28.3-105.6
			c19.2-33.3,46.2-59.4,77.3-77.3c33.3-19.2,69.7-28.3,105.6-28.3c24.3,0,47.6,4.1,69.4,11.7c122.3,40.6,223.5,18.8,288.6-56.8
			c54.7-63.4,54.6-155.7-0.1-219.1c-65.3-75.7-166.9-97.4-289.7-56.3c0,0,0,0,0,0c-22.3,7.6-45.4,11.4-68.2,11.3
			c-38.5,0-74.5-10.3-105.6-28.3c-33.3-19.2-59.4-46.2-77.3-77.3c-19.2-33.3-28.3-69.7-28.3-105.6C56.1,929.2,66.4,893.1,84.4,862z"
			/>
		<path class="st3" d="M2043.9,740v671.2h-246.2V740c0-279.9-152.9-422.4-386.2-422.4S1025.4,460.1,1025.4,740v302.3
			c-38.2-16.4-80.2-25.6-124.4-25.6c-41,0-82.3,8-121.8,24.4V742.6c0-430.2,254-653.1,632.4-653.1
			C1789.9,89.5,2046.5,307.2,2043.9,740z"/>
	</g>
</g>
<g id="Black" class="st1">
	<g class="st2">
		<path d="M84.4,862c19.2-33.3,46.2-59.4,77.3-77.3c33.3-19.2,69.7-28.3,105.6-28.3c38.5,0,74.5,10.3,105.6,28.3
			c33.3,19.2,59.4,46.2,77.3,77.3c12.1,20.9,20.1,43,24.5,65.4c38.8,189.2,175.1,267.5,358.5,205.9c22.2-7.5,45-11.2,67.7-11.1
			c38.5,0,74.5,10.3,105.6,28.3c33.3,19.2,59.4,46.2,77.3,77.3c19.2,33.3,28.3,69.7,28.3,105.6c0,38.5-10.3,74.5-28.3,105.6
			c-19.2,33.3-46.2,59.4-77.3,77.3c-33.3,19.2-69.7,28.3-105.6,28.3c-23.6,0-46.2-3.9-67.4-11l0,0c-183.9-61.9-320.4,16.7-359,206.5
			c0,0,0-0.1,0-0.2c-4.5,23.2-12.9,45-24.3,64.8c-19.2,33.3-46.2,59.4-77.3,77.3c-33.3,19.2-69.7,28.3-105.6,28.3
			c-38.5,0-74.5-10.3-105.6-28.3c-33.3-19.2-59.4-46.2-77.3-77.3c-19.2-33.3-28.3-69.7-28.3-105.6c0-38.5,10.3-74.5,28.3-105.6
			c19.2-33.3,46.2-59.4,77.3-77.3c33.3-19.2,69.7-28.3,105.6-28.3c24.3,0,47.6,4.1,69.4,11.7c122.3,40.6,223.5,18.8,288.6-56.8
			c54.7-63.4,54.6-155.7-0.1-219.1c-65.3-75.7-166.9-97.4-289.7-56.3c0,0,0,0,0,0c-22.3,7.6-45.4,11.4-68.2,11.3
			c-38.5,0-74.5-10.3-105.6-28.3c-33.3-19.2-59.4-46.2-77.3-77.3c-19.2-33.3-28.3-69.7-28.3-105.6C56.1,929.2,66.4,893.1,84.4,862z"
			/>
		<path d="M2043.9,740v671.2h-246.2V740c0-279.9-152.9-422.4-386.2-422.4S1025.4,460.1,1025.4,740v302.3
			c-38.2-16.4-80.2-25.6-124.4-25.6c-41,0-82.3,8-121.8,24.4V742.6c0-430.2,254-653.1,632.4-653.1
			C1789.9,89.5,2046.5,307.2,2043.9,740z"/>
	</g>
</g>
</svg>
